<svg width="642" height="643" viewBox="0 0 642 643" fill="none" xmlns="http://www.w3.org/2000/svg">
<g opacity="0.2">
<path d="M322.364 588.05C179.923 587.927 62.5617 476.031 55.4304 333.547C48.2991 191.062 153.899 67.9724 295.614 53.583V161.821C215.113 175.447 157.689 247.48 162.242 329.122C166.796 410.765 231.874 475.944 313.389 480.505C394.905 485.065 466.826 427.551 480.43 346.925H588.5C574.584 483.738 459.644 587.865 322.337 588.05H322.364ZM588.527 293.342H480.457C469.073 225.979 416.374 173.209 349.114 161.821V53.583C475.563 66.5497 575.539 166.67 588.5 293.315L588.527 293.342Z" fill="white"/>
</g>
</svg>
