<svg width="318" height="319" viewBox="0 0 318 319" fill="none" xmlns="http://www.w3.org/2000/svg">
<g opacity="0.2">
<path d="M159.676 291.739C89.1206 291.678 30.9885 236.165 27.4562 165.477C23.9238 94.7883 76.2304 33.722 146.426 26.5833V80.2816C106.551 87.0414 78.1074 122.778 80.363 163.282C82.6186 203.785 114.853 236.122 155.23 238.384C195.607 240.647 231.231 212.113 237.97 172.114H291.5C284.607 239.988 227.674 291.647 159.662 291.739H159.676ZM291.513 145.53H237.983C232.344 112.111 206.241 85.9314 172.926 80.2816V26.5833C235.559 33.0162 285.08 82.6871 291.5 145.517L291.513 145.53Z" fill="white"/>
</g>
</svg>
