<svg width="21" height="21" viewBox="0 0 21 21" fill="none" xmlns="http://www.w3.org/2000/svg">
<path d="M20.0019 10.4374C20.0019 9.74383 19.9456 9.04654 19.8257 8.36426H10.2024V12.293H15.7132C15.4845 13.5601 14.7497 14.681 13.6738 15.3933V17.9425H16.9615C18.8922 16.1656 20.0019 13.5414 20.0019 10.4374Z" fill="#4285F4"/>
<path d="M10.2024 20.4056C12.954 20.4056 15.2745 19.5022 16.9652 17.9426L13.6775 15.3934C12.7628 16.0157 11.5819 16.3681 10.2061 16.3681C7.54444 16.3681 5.28764 14.5724 4.47789 12.1582H1.08521V14.7861C2.81716 18.2313 6.34481 20.4056 10.2024 20.4056Z" fill="#34A853"/>
<path d="M4.47423 12.1577C4.04686 10.8906 4.04686 9.51857 4.47423 8.25146V5.62354H1.08529C-0.361762 8.50638 -0.361762 11.9028 1.08529 14.7857L4.47423 12.1577Z" fill="#FBBC04"/>
<path d="M10.2024 4.03818C11.6569 4.01568 13.0627 4.56301 14.1161 5.5677L17.029 2.65486C15.1845 0.922899 12.7366 -0.0293031 10.2024 0.00068753C6.34481 0.00068753 2.81716 2.17501 1.08521 5.62393L4.47415 8.25186C5.28014 5.83386 7.54069 4.03818 10.2024 4.03818Z" fill="#EA4335"/>
</svg>
